<?xml version="1.0" encoding="UTF-8" standalone="no"?>
<!-- Generated by IcoMoon.io -->

<svg
   xmlns:dc="http://purl.org/dc/elements/1.1/"
   xmlns:cc="http://creativecommons.org/ns#"
   xmlns:rdf="http://www.w3.org/1999/02/22-rdf-syntax-ns#"
   xmlns:svg="http://www.w3.org/2000/svg"
   xmlns="http://www.w3.org/2000/svg"
   xmlns:sodipodi="http://sodipodi.sourceforge.net/DTD/sodipodi-0.dtd"
   xmlns:inkscape="http://www.inkscape.org/namespaces/inkscape"
   version="1.1"
   width="13"
   height="14"
   viewBox="0 0 13 14"
   id="svg2"
   inkscape:version="0.91 r13725"
   sodipodi:docname="lodka.svg">
  <metadata
     id="metadata10">
    <rdf:RDF>
      <cc:Work
         rdf:about="">
        <dc:format>image/svg+xml</dc:format>
        <dc:type
           rdf:resource="http://purl.org/dc/dcmitype/StillImage" />
        <dc:title />
      </cc:Work>
    </rdf:RDF>
  </metadata>
  <defs
     id="defs8" />
  <sodipodi:namedview
     pagecolor="#ffffff"
     bordercolor="#666666"
     borderopacity="1"
     objecttolerance="10"
     gridtolerance="10"
     guidetolerance="10"
     inkscape:pageopacity="0"
     inkscape:pageshadow="2"
     inkscape:window-width="961"
     inkscape:window-height="624"
     id="namedview6"
     showgrid="false"
     inkscape:zoom="16.857143"
     inkscape:cx="3.5338984"
     inkscape:cy="7.3559323"
     inkscape:window-x="216"
     inkscape:window-y="312"
     inkscape:window-maximized="0"
     inkscape:current-layer="svg2" />
  <g
     style="font-style:normal;font-weight:normal;font-size:81.04264069px;line-height:125%;font-family:sans-serif;letter-spacing:0px;word-spacing:0px;fill:#00007d;fill-opacity:1;stroke:none;stroke-width:1px;stroke-linecap:butt;stroke-linejoin:miter;stroke-opacity:1;fill-rule:nonzero"
     id="text4144"
     transform="matrix(0.06638833,0,0,0.07557751,35.192051,97.714857)">
    <path
       d="m -333.89343,-1130.4974 -2.59337,4.8163 q -15.1897,-2.9639 -28.15653,-2.2229 5.55721,2.0376 10.00298,4.631 10.37346,6.2982 12.59634,14.4488 -15.56018,-13.1521 -31.86133,-13.1521 -2.59337,0 -5.00149,0.3705 -29.45321,4.2605 -44.0872,12.4111 -0.18524,0.7409 -2.22288,0.7409 -3.14909,0 -9.81774,-2.2228 15.00447,-7.5949 34.63994,-16.4864 -28.15653,3.3343 -73.72565,7.5948 -10.5587,0.5557 -18.15355,0.5557 -17.22735,0 -25.00744,-3.3343 -9.07678,-3.89 -9.07678,-13.1521 5.37197,2.9639 17.04211,6.8539 -1.66716,-1.6671 -3.51957,-5.3719 -0.18524,-1.2967 -2.40812,-2.9639 -2.22288,-1.6671 -2.40812,-2.2229 0,-2.4081 -0.74097,-6.8539 -1.11144,-1.2966 -2.59336,-3.7048 -0.18524,-0.5557 0,-2.4081 0.18524,-1.8524 0,-2.4081 -1.48192,-4.631 -1.48192,-5.0015 0.9262,-3.3343 0.37048,-4.0753 -1.85241,-2.7786 -1.29668,-4.8162 0.55572,-3.8901 0,-4.2606 -2.40813,-0.9262 -6.29818,-2.5933 -0.18524,-8.7063 1.48193,-10.1882 l 21.48787,8.7063 19.45024,-20.747 17.78307,-63.9079 q -5.00149,-0.5557 -6.11293,-0.3705 -2.03764,0.3705 -2.03764,-2.4081 0,-2.7786 1.66716,-2.4081 2.03764,0.3705 9.44726,0.741 l 37.60378,-18.7093 q 0.74096,-3.7048 0.74096,-6.8539 0,-2.2229 1.85241,-2.2229 1.48192,0 1.48192,2.2229 0,3.1491 -0.37048,6.4834 l 35.01042,26.3041 q 2.03764,-0.3705 4.44577,0 2.22288,0.3705 2.22288,2.5934 0,1.6672 -1.8524,1.4819 -2.77861,-0.3705 -13.15206,-1.4819 2.03764,5.372 3.7048,10.003 3.70481,11.2996 3.89005,17.4126 1.11144,29.8237 1.11144,30.0089 l 21.85836,36.1219 24.08124,0 q -2.40812,7.5948 -2.40812,12.7815 0,2.7786 1.48192,9.0768 1.48192,6.4834 1.29668,8.1506 l 9.6325,2.0376 z m -95.02829,-151.897 -35.01042,17.2273 34.63994,2.5934 0.37048,-19.8207 z m 35.3809,23.3402 -31.67609,-23.3402 -0.37048,20.1912 32.04657,3.149 z m -10.55869,36.3072 q -2.77861,-12.5964 -9.44726,-34.4547 l -10.92918,-0.741 20.37644,35.1957 z m -51.12633,-9.2621 -4.07529,-13.152 -1.29668,19.0797 5.37197,-5.9277 z m -5.37197,-17.0421 -5.55721,-11.6701 -1.48193,-0.3705 -18.15355,62.0555 22.9698,-24.4517 2.22289,-25.5632 z m 58.72118,41.1234 q -1.11144,-9.4473 -10.92918,-26.3041 l -13.89302,-23.7108 -21.1174,-2.2229 q 3.14908,7.5949 5.74245,14.0783 5.74245,15.7454 6.66865,23.7107 0.55572,4.631 0.55572,10.003 0,24.0813 -6.85389,30.3794 14.07826,-6.2981 30.56465,-6.2981 4.26053,0 8.52106,0.5557 1.48192,-14.0783 0.74096,-20.1912 z m -52.97873,-21.8584 -6.48342,7.5949 q 0,2.7786 -5.92769,23.155 -5.37197,16.1159 -20.37643,29.0827 l 2.7786,1.1115 q 9.07678,-3.7048 21.30264,-26.6746 7.03913,-13.3373 8.7063,-34.2695 z m 1.8524,6.6687 q -1.29668,5.7424 -2.40812,11.4849 -2.77861,9.6325 -7.7801,19.8207 -7.40961,15.0045 -19.82071,23.3403 0.55572,0.1852 1.48192,0.1852 5.92769,0 13.70778,-5.1867 9.07678,-6.2982 12.22586,-15.7454 3.14909,-9.6325 3.14909,-22.9698 0,-5.9277 -0.55572,-10.9292 z m -10.5587,3.1491 -23.71076,25.5631 -6.66865,22.7846 4.81625,0.9262 q 3.89004,-3.5196 7.03913,-6.8539 7.59485,-8.3358 10.37346,-15.375 7.78009,-20.0059 8.15057,-27.045 z m -26.30413,27.786 -14.2635,16.1159 9.07678,3.3343 5.18672,-19.4502 z m 54.6459,9.6325 -2.7786,1.1114 -1.48193,8.1506 3.33433,0.3705 0.9262,-9.6325 z m -4.44577,1.4819 -2.7786,1.1115 -1.48192,5.7424 3.14908,0.5557 1.11144,-7.4096 z m 38.90047,0.1853 q -0.18524,-5.372 -11.67014,-5.372 -6.29817,0 -13.89302,1.4819 l 0,21.1174 q 5.74245,-0.7409 14.81922,-5.7424 10.92918,-6.113 10.74394,-11.4849 z m 35.3809,26.3041 -1.8524,-2.5934 -15.93067,1.1115 q -1.66716,-1.1115 -2.22288,-6.4834 l 15.37495,0 -19.45024,-32.9728 q -0.55572,14.0782 -5.18673,20.0059 -2.03764,2.5934 -10.5587,7.4096 -7.03913,4.0753 -20.74691,5.9277 l -0.74096,7.9654 q 7.40961,1.1114 32.41705,2.5933 16.67163,0.3705 28.89749,-2.9638 z m -75.39281,-17.4126 -3.51957,-0.9262 -0.55572,2.4081 3.70481,0.5557 0.37048,-2.0376 z m 4.44577,0.5557 -3.14909,-0.7409 -0.37048,2.4081 3.33433,0.5557 0.18524,-2.2229 z m 4.26053,-12.2258 -1.66717,0.7409 -2.59336,27.0451 3.33432,0.741 0.92621,-28.527 z m -12.22587,4.2605 q -6.66865,3.1491 -33.89897,12.4111 l 28.89749,8.1506 5.00148,-20.5617 z m 2.77861,10.9292 -3.51957,-0.3705 -0.9262,3.89 4.26053,0.5558 0.18524,-4.0753 z m 4.81625,0.7409 -3.14909,-0.3705 -0.37048,3.8901 q 0.37048,0 3.14909,0.9262 l 0.37048,-4.4458 z m 87.80391,12.7816 -0.74096,-2.2229 q -17.04211,7.5949 -41.49383,7.5949 -17.78307,0 -41.49383,-3.5196 -44.64292,-6.8539 -91.87921,-29.6384 l -1.11144,6.6686 q 9.6325,5.1867 31.12038,12.2259 29.45321,10.003 61.49978,15.9306 15.00447,2.7786 30.19418,2.7786 30.37941,0 53.90493,-9.8177 z m -93.36112,-8.1506 -4.07529,-0.5557 -1.11144,5.372 4.44577,0.9262 0.74096,-5.7425 z m 5.00149,1.1115 -3.14909,-0.741 -0.9262,5.5572 3.51957,0.9262 0.55572,-5.7424 z m 80.95002,5.3719 0,-1.1114 -8.89154,0.3705 1.48193,2.7786 q 2.96384,-0.741 7.40961,-2.0377 z m 2.22288,7.2244 0,-1.4819 q -10.5587,2.9638 -21.11739,5.7424 -9.44726,2.2229 -20.1912,2.2229 -12.22586,0 -35.01042,-2.5933 -33.15802,-3.8901 -90.21204,-25.7484 l -0.37048,5.3719 q 8.52105,4.2606 28.71225,10.744 31.12037,9.8177 60.01787,13.3373 13.89302,1.6671 26.85984,1.6671 32.41706,0 51.31157,-9.262 z m -7.59485,4.631 q -23.52552,6.113 -46.31008,6.113 -11.85538,0 -24.63696,-1.2967 -35.56615,-3.7048 -87.2482,-23.3403 l -0.37048,5.7424 q 38.34475,13.5226 86.87771,20.5617 11.85538,1.6672 23.34028,1.6672 28.71226,0 48.34773,-9.4473 z m -3.70481,5.5572 -0.37048,-1.4819 q -24.8222,7.0391 -45.75436,7.0391 -6.66865,0 -24.26648,-1.1114 -20.74692,-1.2967 -82.61719,-19.8207 l 0,5.1867 q 5.00149,2.2229 28.15653,7.5949 28.71225,6.6686 53.7197,9.8177 8.89153,1.1115 18.33879,1.1115 27.78605,0 52.79349,-8.3359 z m -72.6142,8.3359 q -41.12336,-3.3344 -78.17142,-15.5602 l 0.37048,5.7424 q 12.22586,2.7786 24.45172,5.5572 23.896,5.372 28.52701,5.372 23.71076,0 24.82221,-1.1114 z"
       style="font-style:normal;font-variant:normal;font-weight:normal;font-stretch:normal;font-size:185.24032593px;font-family:FaithOrnaments;-inkscape-font-specification:FaithOrnaments;fill:#00007d;fill-opacity:1;fill-rule:nonzero"
       id="path8100"
       inkscape:connector-curvature="0" />
  </g>
</svg>
