<?xml version="1.0" encoding="UTF-8" standalone="no"?>
<svg
   xmlns:dc="http://purl.org/dc/elements/1.1/"
   xmlns:cc="http://creativecommons.org/ns#"
   xmlns:rdf="http://www.w3.org/1999/02/22-rdf-syntax-ns#"
   xmlns:svg="http://www.w3.org/2000/svg"
   xmlns="http://www.w3.org/2000/svg"
   xmlns:sodipodi="http://sodipodi.sourceforge.net/DTD/sodipodi-0.dtd"
   xmlns:inkscape="http://www.inkscape.org/namespaces/inkscape"
   width="220.875"
   height="29.562"
   viewBox="0 0 220.875 29.562"
   id="svg3388"
   version="1.1"
   inkscape:version="0.91 r13725"
   sodipodi:docname="logo_path.svg">
  <metadata
     id="metadata3400">
    <rdf:RDF>
      <cc:Work
         rdf:about="">
        <dc:format>image/svg+xml</dc:format>
        <dc:type
           rdf:resource="http://purl.org/dc/dcmitype/StillImage" />
        <dc:title></dc:title>
      </cc:Work>
    </rdf:RDF>
  </metadata>
  <defs
     id="defs3398" />
  <sodipodi:namedview
     pagecolor="#ffffff"
     bordercolor="#666666"
     borderopacity="1"
     objecttolerance="10"
     gridtolerance="10"
     guidetolerance="10"
     inkscape:pageopacity="0"
     inkscape:pageshadow="2"
     inkscape:window-width="1280"
     inkscape:window-height="960"
     id="namedview3396"
     showgrid="false"
     inkscape:zoom="2.4818678"
     inkscape:cx="112.11418"
     inkscape:cy="-18.660995"
     inkscape:window-x="0"
     inkscape:window-y="27"
     inkscape:window-maximized="1"
     inkscape:current-layer="g3392" />
  <g
     id="g3392"
     style="display:inline;fill:#3cadb2">
    <g
       style="font-style:normal;font-weight:normal;font-size:7.5px;line-height:125%;font-family:sans-serif;letter-spacing:0px;word-spacing:0px;fill:#006666;fill-opacity:1;stroke:none;stroke-width:1px;stroke-linecap:butt;stroke-linejoin:miter;stroke-opacity:1"
       id="text3402">
      <path
         d="m 13.308199,11.6896 4.8825,8.4825 1.8225,0 0,0.9 -7.6275,0 0,-0.9 2.025,0 -3.33,-5.6475 -1.2374995,2.385 q -0.27,0.495 -0.6075,1.4625 -0.3375,0.945 -0.3375,1.305 0,0.27 0.27,0.405 0.2925,0.1125 0.6975,0.1125 0.3599995,0 0.5399995,-0.0225 l 0,0.9 -5.1749995,0 0,-0.9 q 0.225,0.0225 0.315,0.0225 1.1475,0 1.9125,-0.9675 0.4725,-0.585 1.3725,-2.5425 l 0.2925,-0.63 1.2824995,-2.655 -3.7349995,-6.3900003 -1.4175,0 0,-0.9 6.6824995,0 0,0.9 -1.5975,0 2.25,3.6450003 q 0.99,-2.1375003 1.7775,-3.1500003 1.305,-1.6875 2.8125,-1.6875 0.54,0 1.305,0.225 0.7875,0.2025 0.7875,0.4275 0,0.09 -0.18,0.4725 -0.18,0.36 -0.405,0.72 l -0.2025,1.125 q 0.0225,0.27 -0.0675,0.54 -0.0675,0 -0.2925,0.0225 -0.225,0 -0.315,0 -0.3825,0 -0.9225,-0.3825 -0.54,-0.3825 -0.81,-0.3825 -0.63,0 -1.215,0.5625 -0.72,0.6975 -1.5525,2.5425003 z"
         style="font-style:normal;font-variant:normal;font-weight:bold;font-stretch:normal;font-size:22.5px;font-family:CyrillicOld;-inkscape-font-specification:'CyrillicOld Bold';fill:#2260a9;fill-opacity:1"
         id="path8068" />
      <path
         d="m 23.446559,19.5421 0.09,0.72 q 0.0225,0.2925 0.09,1.5075 0.09,1.2375 0.09,1.9125 0,1.62 -0.36,2.2275 -0.3375,0.63 -0.99,0.63 -0.4275,0 -0.495,-0.2025 l 0,-0.135 q 0.0225,-0.1575 0.0225,-0.5175 0,-0.3375 0,-0.6075 l 0,-0.63 0,-0.5625 0,-0.45 q 0,-0.36 -0.0225,-0.81 -0.0225,-0.45 -0.09,-1.035 -0.2025,-2.1825 -0.2925,-3.1725 -0.09,-0.99 -0.09,-1.845 0,-2.565 1.62,-4.5225 1.3725,-1.6425 2.4075,-1.6425 1.1025,0 2.385,1.9575 1.44,2.205 1.44,4.7025 0,1.9125 -0.855,3.1275 -0.8325,1.1925 -2.1375,1.1925 -0.81,0 -1.62,-0.5175 -0.7875,-0.54 -1.1925,-1.3275 z m 0.585,-7.1325 q -0.495,0.7425 -0.6975,1.5075 -0.2025,0.765 -0.2025,1.8225 0,1.845 0.9675,3.195 0.855,1.17 1.71,1.17 0.405,0 0.6975,-0.2925 0.45,-0.45 0.45,-1.3725 l 0,-0.7875 q 0,-1.26 -0.8325,-2.88 -0.9225,-1.8 -2.0925,-2.3625 z"
         style="font-style:normal;font-variant:normal;font-weight:bold;font-stretch:normal;font-size:22.5px;font-family:CyrillicOld;-inkscape-font-specification:'CyrillicOld Bold';fill:#2260a9;fill-opacity:1"
         id="path8070" />
      <path
         d="m 35.377535,11.1496 2.1825,0 q 0.225,0 0.27,0.1125 0,0.2475 0,0.405 0.0225,0.135 0.135,0.585 l 0.3375,1.2375 0.1575,0.63 q 0.72,2.88 1.305,4.635 0.3825,1.08 0.765,2.1375 0,0.18 -0.4275,0.18 l -2.1825,0 q -0.1575,0 -0.225,-0.27 -0.045,-0.27 -0.0675,-0.4725 -0.135,-0.3825 -0.225,-0.6975 l -0.2475,-0.8325 -0.27,-0.9675 q -0.4725,1.575 -1.17,2.4075 -0.9,1.08 -2.205,1.08 -1.215,0 -1.8225,-0.99 -0.4725,-0.765 -0.4725,-1.8 0,-1.0575 1.035,-2.52 0.36,-0.5175 1.6425,-1.98 0.1125,-0.135 0.9225,-1.0125 0.36,-0.3825 0.36,-0.6075 0,-0.135 -0.045,-0.2925 -0.0225,-0.18 -0.1125,-0.405 -0.0675,-0.2475 -0.0675,-0.45 0,-0.1125 0.4275,-0.1125 z m 0.18,2.0925 q -0.9225,1.0125 -1.53,2.115 -0.6075,1.08 -0.6075,1.8 0,0.54 0.2925,1.0125 0.315,0.45 0.9675,0.45 0.8325,0 1.3725,-0.63 0.45,-0.5175 0.45,-1.1025 0,-0.36 -0.135,-0.81 -0.135,-0.45 -0.225,-0.7425 l -0.27,-0.945 -0.315,-1.1475 z"
         style="font-style:normal;font-variant:normal;font-weight:bold;font-stretch:normal;font-size:22.5px;font-family:CyrillicOld;-inkscape-font-specification:'CyrillicOld Bold';fill:#2260a9;fill-opacity:1"
         id="path8072" />
      <path
         d="m 45.067301,11.1496 1.665,0 q 0.4275,0 0.5175,0.1575 0.09,0.1575 0.18,1.0125 0.09,0.8325 0.36,2.115 0.27,1.26 0.945,3.87 0.1575,-1.1025 0.5625,-2.205 0.225,-0.63 0.54,-1.26 0.18,-0.3825 0.36,-0.855 0.2025,-0.495 0.2025,-0.7875 0,-0.765 -0.09,-1.26 -0.0675,-0.5175 -0.0675,-0.675 0,-0.1125 0.2475,-0.1125 l 0.225,0 1.755,0 q 0.585,0 0.63,0.3375 0.2925,3.285 0.7875,5.0625 0.4275,1.5075 1.3725,3.5325 0.0675,0.18 0.1125,0.3375 0.0675,0.1575 0.0675,0.3375 0,0.18 -0.0675,0.2475 -0.0675,0.0675 -0.405,0.0675 l -1.44,0 q -0.765,0 -1.5975,-2.3175 -0.6075,-1.665 -0.8775,-3.33 l -0.18,-0.8775 q -0.63,1.3725 -1.0575,2.925 -0.4275,1.53 -0.4275,2.6325 l 0,0.45 q 0.0225,0.1125 0,0.315 -0.0225,0.2025 -0.18,0.2025 l -1.6425,0 q -0.36,0 -0.45,-0.0675 -0.2475,-0.18 -0.495,-0.9225 -0.3825,-1.2375 -0.675,-2.4525 -0.3825,-1.5975 -0.8325,-3.8925 -0.8775,1.1025 -1.395,2.4075 -0.5175,1.305 -0.5175,2.4975 0,0.45 0.135,0.945 0.0675,0.27 0.2475,0.7425 0.0675,0.2025 0.135,0.3825 0.0675,0.18 0.0675,0.225 0,0.135 -0.225,0.135 l -1.845,0 q -0.2025,0 -0.2925,-0.27 -0.0675,-0.27 -0.0675,-0.675 0,-1.125 0.6975,-2.6775 0.4725,-1.035 1.17,-2.1375 0.585,-0.945 0.81,-1.3725 0.54,-1.0125 0.54,-1.71 -0.0225,-0.135 -0.0225,-0.225 -0.045,-0.27 -0.045,-0.3825 0,-0.09 0.045,-0.225 0.045,-0.135 0.1125,-0.18 0.09,-0.0675 0.405,-0.0675 z"
         style="font-style:normal;font-variant:normal;font-weight:bold;font-stretch:normal;font-size:22.5px;font-family:CyrillicOld;-inkscape-font-specification:'CyrillicOld Bold';fill:#2260a9;fill-opacity:1"
         id="path8074" />
      <path
         d="m 64.452809,13.1296 -0.99,0 -0.9225,-5.1075003 q 0,-0.6975 0.4275,-1.1925 0.4275,-0.495 0.99,-0.495 0.36,0 0.6975,0.2475 0.36,0.225 0.54,0.63 0.2025,0.3825 0.2025,0.81 l -0.945,5.1075003 z m 4.7475,0 -0.99,0 -0.945,-5.1075003 q 0,-0.6525 0.4275,-1.17 0.4275,-0.5175 1.0125,-0.5175 0.36,0 0.6975,0.2475 0.36,0.225 0.54,0.63 0.2025,0.3825 0.2025,0.81 l -0.945,5.1075003 z"
         style="font-style:normal;font-variant:normal;font-weight:bold;font-stretch:normal;font-size:22.5px;font-family:CyrillicOld;-inkscape-font-specification:'CyrillicOld Bold';fill:#2260a9;fill-opacity:1"
         id="path8076" />
      <path
         d="m 87.163043,11.3971 -5.6025,0 0,-0.8775 0.9,0 q 0,-2.1150003 -0.7425,-3.0600003 -0.585,-0.7425 -1.5525,-0.7425 -1.0575,0 -1.71,0.9 -0.855,1.1925 -0.855,3.6900003 0,1.26 0.18,2.4075 0.18,1.1475 0.6075,2.9475 0.45,1.8 0.45,2.9925 0,0.27 -0.0675,0.495 -0.045,0.225 -0.09,0.405 l -0.09,0.315 q 0.135,0.1125 0.495,0.1125 1.215,0 2.295,-1.62 1.1025,-1.62 1.1025,-3.5775 0,-0.3825 -0.0225,-0.5625 l -0.9,0 0,-0.9 5.6025,0 0,0.9 -0.8775,0 q 0,2.6325 -2.4075,4.545 -2.2275,1.7775 -4.8375,1.7775 -0.63,0 -0.9225,-0.0675 -0.27,-0.045 -0.6525,-0.2025 l 0,-0.2925 q 0,-0.675 -0.3375,-1.2825 -0.315,-0.6075 -1.5525,-2.205 -1.1025,-1.395 -1.485,-2.61 -0.2475,-0.7875 -0.2475,-1.89 l 0,-0.5625 q 0,-2.9925003 1.9575,-4.8600003 1.845,-1.755 4.59,-1.755 2.97,0 4.545,1.7775 1.035,1.17 1.35,2.9250003 l 0.8775,0 0,0.8775 z"
         style="font-style:normal;font-variant:normal;font-weight:bold;font-stretch:normal;font-size:22.5px;font-family:CyrillicOld;-inkscape-font-specification:'CyrillicOld Bold';fill:#2260a9;fill-opacity:1"
         id="path8078" />
      <path
         d="m 89.822614,11.1496 5.13,0 q 1.125,0 1.485,0.1575 0.5625,0.2475 0.5625,1.035 0,1.1925 -1.17,2.0025 -0.855,0.585 -2.6775,1.125 l 0,0.135 q 1.845,0.4275 3.0375,1.17 1.89,1.17 1.89,2.88 0,0.9225 -0.5625,1.215 -0.3825,0.2025 -1.35,0.2025 l -6.5475,0 q -0.45,0 -0.585,-0.585 -0.1125,-0.6075 -0.1125,-3.0825 0,-4.3425 0.135,-5.2875 0.1575,-0.9675 0.765,-0.9675 z m 1.7325,3.915 q 1.17,0 1.9575,-0.81 0.675,-0.6975 0.675,-1.5525 0,-0.5175 -0.36,-0.675 -0.36,-0.18 -1.1475,-0.18 -0.2925,0 -0.54,0.0225 -0.2475,0 -0.4275,0 -0.1575,1.5075 -0.1575,3.195 z m 0.0225,5.2425 1.35,0.045 q 1.17,0 1.5075,-0.1575 0.5175,-0.2475 0.5175,-1.1025 0,-1.0575 -0.855,-2.025 -1.035,-1.17 -2.5425,-1.17 l -0.045,1.7775 0.0675,2.6325 z"
         style="font-style:normal;font-variant:normal;font-weight:bold;font-stretch:normal;font-size:22.5px;font-family:CyrillicOld;-inkscape-font-specification:'CyrillicOld Bold';fill:#2260a9;fill-opacity:1"
         id="path8080" />
      <path
         d="m 108.88011,12.0946 0.54,0.6525 q -0.5175,0.36 -1.035,0.5625 -0.495,0.2025 -0.945,0.2025 -0.495,0 -0.9675,-0.2925 -0.45,-0.315 -0.855,-0.765 -0.405,-0.4725 -0.5175,-0.585 -0.315,-0.27 -0.63,-0.27 -0.99,0 -1.3725,1.5975 -0.27,1.1025 -0.27,2.79 0.495,-0.3825 1.3275,-0.765 0.9675,-0.45 1.5075,-0.45 0.405,0 0.8325,0.1575 0.4275,0.1575 0.8325,0.405 0.405,0.2475 0.585,0.2475 0.2025,0 0.405,-0.09 0.2025,-0.09 0.405,-0.2475 l 0.4275,0.5625 q -0.36,0.4275 -0.6075,0.6525 -0.225,0.2025 -0.6075,0.4725 -0.36,0.27 -0.585,0.36 -0.2025,0.09 -0.4725,0.09 -0.36,0 -0.5175,-0.0675 -0.135,-0.0675 -0.4725,-0.2925 -0.3375,-0.225 -0.675,-0.405 -0.495,-0.27 -0.9225,-0.27 -0.4725,0 -0.9225,0.2475 -0.225,0.135 -0.5175,0.3825 0,1.62 0.765,2.7225 0.7875,1.1025 2.205,1.1025 0.6075,0 1.26,-0.225 0.6525,-0.2475 1.5075,-0.8775 l 0.3825,0.45 q -0.6525,0.72 -1.62,1.17 -0.9675,0.4725 -2.205,0.4725 -1.935,0 -3.33,-0.9225 -1.979996,-1.3275 -1.979996,-4.14 l 0,-0.72 q 0,-1.755 1.057496,-3.285 1.305,-1.89 3.51,-1.89 0.99,0 1.98,0.405 0.495,0.2025 1.2375,0.6525 0.4725,0.36 0.7875,0.36 0.2475,0 0.4725,-0.1575 z"
         style="font-style:normal;font-variant:normal;font-weight:bold;font-stretch:normal;font-size:22.5px;font-family:CyrillicOld;-inkscape-font-specification:'CyrillicOld Bold';fill:#2260a9;fill-opacity:1"
         id="path8082" />
      <path
         d="m 121.38238,15.1546 -1.1025,-0.2025 q 0.1575,-0.45 0.225,-0.6975 0.0675,-0.2475 0.0675,-0.5175 0,-1.1925 -0.9675,-1.6425 -0.585,-0.27 -1.5525,-0.27 l -0.405,0 -0.0225,2.025 -0.0225,1.4625 q 0,1.71 0.0225,3.2175 0.045,1.485 0.1125,2.025 0.045,0.315 -0.1125,0.4725 -0.135,0.135 -0.7425,0.135 l -1.26,0 q -0.45,0 -0.54,-0.405 -0.09,-0.4275 -0.09,-2.025 l 0.0225,-1.3275 0,-0.9225 0.045,-2.4525 0.0675,-2.205 -0.3825,0 q -0.945,0 -1.5075,0.2475 -1.0125,0.45 -1.0125,1.665 0,0.2025 0.1125,0.63 0.1125,0.405 0.1575,0.585 l -1.1025,0.2025 q -0.27,-0.855 -0.495,-1.305 -0.225,-0.4725 -0.7425,-1.2375 -0.18,-0.27 -0.2475,-0.405 -0.135,-0.27 -0.135,-0.5625 0,-0.315 0.2025,-0.54 0.2025,-0.225 0.4275,-0.225 0.1575,0 0.4725,0.045 0.315,0.045 0.765,0.09 0.4725,0.09 1.26,0.1125 0.7875,0.0225 1.5075,0.0225 l 3.9825,0 0.6975,0 0.27,0 q 0.9225,0 1.7775,-0.135 0.45,-0.045 0.7425,-0.09 0.315,-0.045 0.495,-0.045 0.225,0 0.4275,0.225 0.2025,0.225 0.2025,0.54 0,0.2925 -0.1125,0.54 -0.18,0.2925 -0.2475,0.4275 -0.4275,0.63 -0.72,1.2375 -0.2925,0.585 -0.54,1.305 z"
         style="font-style:normal;font-variant:normal;font-weight:bold;font-stretch:normal;font-size:22.5px;font-family:CyrillicOld;-inkscape-font-specification:'CyrillicOld Bold';fill:#2260a9;fill-opacity:1"
         id="path8084" />
      <path
         d="m 128.14609,11.1496 2.1825,0 q 0.225,0 0.27,0.1125 0,0.2475 0,0.405 0.0225,0.135 0.135,0.585 l 0.3375,1.2375 0.1575,0.63 q 0.72,2.88 1.305,4.635 0.3825,1.08 0.765,2.1375 0,0.18 -0.4275,0.18 l -2.1825,0 q -0.1575,0 -0.225,-0.27 -0.045,-0.27 -0.0675,-0.4725 -0.135,-0.3825 -0.225,-0.6975 l -0.2475,-0.8325 -0.27,-0.9675 q -0.4725,1.575 -1.17,2.4075 -0.9,1.08 -2.205,1.08 -1.215,0 -1.8225,-0.99 -0.4725,-0.765 -0.4725,-1.8 0,-1.0575 1.035,-2.52 0.36,-0.5175 1.6425,-1.98 0.1125,-0.135 0.9225,-1.0125 0.36,-0.3825 0.36,-0.6075 0,-0.135 -0.045,-0.2925 -0.0225,-0.18 -0.1125,-0.405 -0.0675,-0.2475 -0.0675,-0.45 0,-0.1125 0.4275,-0.1125 z m 0.18,2.0925 q -0.9225,1.0125 -1.53,2.115 -0.6075,1.08 -0.6075,1.8 0,0.54 0.2925,1.0125 0.315,0.45 0.9675,0.45 0.8325,0 1.3725,-0.63 0.45,-0.5175 0.45,-1.1025 0,-0.36 -0.135,-0.81 -0.135,-0.45 -0.225,-0.7425 l -0.27,-0.945 -0.315,-1.1475 z"
         style="font-style:normal;font-variant:normal;font-weight:bold;font-stretch:normal;font-size:22.5px;font-family:CyrillicOld;-inkscape-font-specification:'CyrillicOld Bold';fill:#2260a9;fill-opacity:1"
         id="path8086" />
      <path
         d="m 145.69574,20.1721 0,-13.1625003 -0.9,0 q -1.2825,0 -1.62,0.2925 -0.63,0.54 -1.215,2.8125003 -0.135,0.585 -0.1575,0.63 -0.1575,0.45 -0.54,0.45 -0.405,0 -0.5175,-0.2475 -0.1125,-0.27 -0.1125,-0.72 0,-0.9000003 -0.3825,-1.8675003 -0.09,-0.27 -0.4275,-1.0125 -0.225,-0.495 -0.225,-0.72 0,-0.315 0.2475,-0.5625 0.2475,-0.2475 0.6975,-0.2475 0.585,0.1125 1.2825,0.225 0.72,0.09 1.5975,0.09 l 0.765,-0.0225 6.345,0 0.765,0.0225 q 0.99,0 1.62,-0.09 0.63,-0.1125 1.26,-0.225 0.45,0 0.675,0.27 0.2475,0.2475 0.2475,0.54 0,0.2475 -0.2925,0.9 -0.27,0.6525 -0.3375,0.8325 -0.18,0.45 -0.2925,0.945 -0.1125,0.495 -0.1125,0.9225003 0,0.45 -0.045,0.585 -0.135,0.3825 -0.5625,0.3825 -0.3825,0 -0.585,-0.63 -0.0675,-0.18 -0.315,-1.1475003 -0.405,-1.53 -0.99,-2.0475 -0.405,-0.36 -1.2375,-0.36 l -0.405,0 -0.9225,0 0,13.1625003 1.8,0 0,0.9 -6.8625,0 0,-0.9 1.755,0 z"
         style="font-style:normal;font-variant:normal;font-weight:bold;font-stretch:normal;font-size:22.5px;font-family:CyrillicOld;-inkscape-font-specification:'CyrillicOld Bold';fill:#2260a9;fill-opacity:1"
         id="path8088" />
      <path
         d="m 158.79812,19.5421 0.09,0.72 q 0.0225,0.2925 0.09,1.5075 0.09,1.2375 0.09,1.9125 0,1.62 -0.36,2.2275 -0.3375,0.63 -0.99,0.63 -0.4275,0 -0.495,-0.2025 l 0,-0.135 q 0.0225,-0.1575 0.0225,-0.5175 0,-0.3375 0,-0.6075 l 0,-0.63 0,-0.5625 0,-0.45 q 0,-0.36 -0.0225,-0.81 -0.0225,-0.45 -0.09,-1.035 -0.2025,-2.1825 -0.2925,-3.1725 -0.09,-0.99 -0.09,-1.845 0,-2.565 1.62,-4.5225 1.3725,-1.6425 2.4075,-1.6425 1.1025,0 2.385,1.9575 1.44,2.205 1.44,4.7025 0,1.9125 -0.855,3.1275 -0.8325,1.1925 -2.1375,1.1925 -0.81,0 -1.62,-0.5175 -0.7875,-0.54 -1.1925,-1.3275 z m 0.585,-7.1325 q -0.495,0.7425 -0.6975,1.5075 -0.2025,0.765 -0.2025,1.8225 0,1.845 0.9675,3.195 0.855,1.17 1.71,1.17 0.405,0 0.6975,-0.2925 0.45,-0.45 0.45,-1.3725 l 0,-0.7875 q 0,-1.26 -0.8325,-2.88 -0.9225,-1.8 -2.0925,-2.3625 z"
         style="font-style:normal;font-variant:normal;font-weight:bold;font-stretch:normal;font-size:22.5px;font-family:CyrillicOld;-inkscape-font-specification:'CyrillicOld Bold';fill:#2260a9;fill-opacity:1"
         id="path8090" />
      <path
         d="m 166.5441,16.7296 q 0,-2.4525 1.53,-4.545 1.3275,-1.8 2.295,-1.8 1.08,0 2.34,1.1925 1.6425,1.5525 1.6425,3.915 0,1.935 -1.395,4.1175 -1.3725,2.1825 -2.475,2.1825 -1.125,0 -2.4975,-1.6425 -1.44,-1.7325 -1.44,-3.42 z m 2.1825,-3.96 q -0.315,0.3825 -0.495,0.8775 -0.18,0.4725 -0.18,0.855 0,1.44 0.9,2.88 1.125,1.8 2.88,1.8 0.27,0 0.405,-0.0225 0.18,-0.36 0.27,-0.765 0.09,-0.405 0.09,-0.81 0,-1.7775 -1.035,-3.15 -1.1025,-1.4625 -2.835,-1.665 z"
         style="font-style:normal;font-variant:normal;font-weight:bold;font-stretch:normal;font-size:22.5px;font-family:CyrillicOld;-inkscape-font-specification:'CyrillicOld Bold';fill:#2260a9;fill-opacity:1"
         id="path8092" />
      <path
         d="m 178.87129,15.3121 3.645,-2.1825 q 0,-1.35 0.1125,-1.665 0.1125,-0.315 0.6075,-0.315 l 1.8675,0 q 0.27,0 0.27,0.315 l -0.09,0.8775 q -0.1575,0.8775 -0.225,1.44 -0.045,0.54 -0.045,1.53 0,2.745 0.3375,5.1525 0.045,0.315 -0.09,0.4725 -0.135,0.135 -0.765,0.135 l -1.26,0 q -0.4725,0 -0.63,-1.1925 -0.135,-1.1925 -0.135,-5.85 l -3.6,2.1375 q 0,0.9 0.0675,1.8 0.0675,0.9 0.2925,2.4975 0.045,0.315 -0.09,0.4725 -0.135,0.135 -0.765,0.135 l -1.2825,0 q -0.2475,0 -0.3375,-0.045 -0.27,-0.1575 -0.27,-0.7875 l -0.09,-1.35 q 0,-0.72 -0.0675,-1.845 -0.045,-1.125 -0.045,-1.665 0,-2.8575 0.18,-3.5325 0.18,-0.6975 0.6075,-0.6975 l 1.89,0 q 0.2925,0 0.2925,0.315 l -0.1125,0.8775 q -0.1125,0.765 -0.2025,1.4175 -0.0675,0.63 -0.0675,1.5525 z"
         style="font-style:normal;font-variant:normal;font-weight:bold;font-stretch:normal;font-size:22.5px;font-family:CyrillicOld;-inkscape-font-specification:'CyrillicOld Bold';fill:#2260a9;fill-opacity:1"
         id="path8094" />
      <path
         d="m 190.45773,20.3521 3.24,0 -0.0675,-2.34 -0.0675,-2.6325 q 0,-2.8125 0.18,-3.5325 0.18,-0.72 0.6525,-0.72 l 0.8775,0.0225 0.72,-0.045 0.2475,0 q 0.2925,0.045 0.2925,0.315 0,0.2025 -0.0225,0.2925 -0.1575,0.585 -0.225,1.125 -0.0675,0.54 -0.09,1.2375 -0.0225,0.6975 -0.0225,1.2375 0,0.63 -0.0225,1.215 0,0.585 0,1.125 0,2.2275 0.585,2.385 0.135,0.045 0.3825,0 0.27,-0.09 0.4275,-0.1125 0.3375,-0.09 0.5175,-0.09 0.2925,0 0.45,0.18 0.1575,0.18 0.1575,0.3375 0,0.225 -0.1125,0.585 -0.18,0.495 -0.315,0.81 -0.1125,0.315 -0.3375,1.035 -0.405,1.26 -0.72,2.2725 l -1.1925,0 q 0.2475,-0.8325 0.2475,-1.575 0,-1.2825 -0.6075,-1.755 -0.8325,-0.6525 -3.3975,-0.6525 l -1.665,0.0225 -2.205,0.09 q -0.5175,0 -0.6075,-0.7425 -0.09,-0.765 -0.09,-5.0625 0,-2.8575 0.225,-3.69 0.1575,-0.5625 0.585,-0.5625 l 0.8775,0.0225 0.765,-0.045 0.2025,0 q 0.27,0.045 0.27,0.315 0,0.3375 -0.1125,0.99 -0.1125,0.63 -0.18,1.3275 -0.045,0.675 -0.045,1.575 0,0.945 0.045,1.62 0.1575,2.385 0.1575,3.42 z"
         style="font-style:normal;font-variant:normal;font-weight:bold;font-stretch:normal;font-size:22.5px;font-family:CyrillicOld;-inkscape-font-specification:'CyrillicOld Bold';fill:#2260a9;fill-opacity:1"
         id="path8096" />
      <path
         d="m 203.68808,11.1496 2.1825,0 q 0.225,0 0.27,0.1125 0,0.2475 0,0.405 0.0225,0.135 0.135,0.585 l 0.3375,1.2375 0.1575,0.63 q 0.72,2.88 1.305,4.635 0.3825,1.08 0.765,2.1375 0,0.18 -0.4275,0.18 l -2.1825,0 q -0.1575,0 -0.225,-0.27 -0.045,-0.27 -0.0675,-0.4725 -0.135,-0.3825 -0.225,-0.6975 l -0.2475,-0.8325 -0.27,-0.9675 q -0.4725,1.575 -1.17,2.4075 -0.9,1.08 -2.205,1.08 -1.215,0 -1.8225,-0.99 -0.4725,-0.765 -0.4725,-1.8 0,-1.0575 1.035,-2.52 0.36,-0.5175 1.6425,-1.98 0.1125,-0.135 0.9225,-1.0125 0.36,-0.3825 0.36,-0.6075 0,-0.135 -0.045,-0.2925 -0.0225,-0.18 -0.1125,-0.405 -0.0675,-0.2475 -0.0675,-0.45 0,-0.1125 0.4275,-0.1125 z m 0.18,2.0925 q -0.9225,1.0125 -1.53,2.115 -0.6075,1.08 -0.6075,1.8 0,0.54 0.2925,1.0125 0.315,0.45 0.9675,0.45 0.8325,0 1.3725,-0.63 0.45,-0.5175 0.45,-1.1025 0,-0.36 -0.135,-0.81 -0.135,-0.45 -0.225,-0.7425 l -0.27,-0.945 -0.315,-1.1475 z"
         style="font-style:normal;font-variant:normal;font-weight:bold;font-stretch:normal;font-size:22.5px;font-family:CyrillicOld;-inkscape-font-specification:'CyrillicOld Bold';fill:#2260a9;fill-opacity:1"
         id="path8098" />
      <path
         d="m 212.68035,13.1296 -0.99,0 -0.9225,-5.1075003 q 0,-0.6975 0.4275,-1.1925 0.4275,-0.495 0.99,-0.495 0.36,0 0.6975,0.2475 0.36,0.225 0.54,0.63 0.2025,0.3825 0.2025,0.81 l -0.945,5.1075003 z m 4.7475,0 -0.99,0 -0.945,-5.1075003 q 0,-0.6525 0.4275,-1.17 0.4275,-0.5175 1.0125,-0.5175 0.36,0 0.6975,0.2475 0.36,0.225 0.54,0.63 0.2025,0.3825 0.2025,0.81 l -0.945,5.1075003 z"
         style="font-style:normal;font-variant:normal;font-weight:bold;font-stretch:normal;font-size:22.5px;font-family:CyrillicOld;-inkscape-font-specification:'CyrillicOld Bold';fill:#2260a9;fill-opacity:1"
         id="path8100" />
    </g>
  </g>
</svg>
