<svg xmlns="http://www.w3.org/2000/svg" width="13" height="14" viewBox="0 0 13 14"><path d="M13.025 12.275l-.172.364q-1.008-.225-1.87-.17.37.155.665.35.69.477.836 1.093-1.033-.994-2.115-.994-.173 0-.333.027-1.955.322-2.927.938-.012.056-.147.056-.21 0-.652-.167.997-.574 2.3-1.246-1.87.252-4.894.574-.7.043-1.205.043-1.143 0-1.66-.252-.602-.293-.602-.993.357.224 1.13.518-.11-.126-.232-.406-.013-.1-.16-.225-.148-.126-.16-.168 0-.182-.05-.518-.073-.1-.17-.28-.014-.043 0-.183.01-.14 0-.182-.1-.35-.1-.378.062-.252.025-.308-.122-.21-.085-.365.037-.294 0-.322-.16-.07-.418-.196-.013-.658.098-.77l1.427.658 1.29-1.568 1.18-4.83q-.33-.042-.404-.028-.136.027-.136-.183t.11-.182q.136.028.628.056L6.717.628q.05-.28.05-.518 0-.17.122-.17.097 0 .097.17 0 .237-.024.49l2.324 1.987q.135-.028.295 0 .148.028.148.196 0 .126-.123.112-.185-.028-.874-.112.136.406.246.756.245.853.258 1.315l.073 2.268 1.453 2.73h1.598q-.16.574-.16.966 0 .21.1.685.098.49.086.616l.64.155zM6.717.795L4.392 2.097l2.3.196.025-1.498zm2.35 1.764L6.962.794 6.938 2.32l2.128.24zm-.702 2.743Q8.18 4.35 7.737 2.7l-.725-.057 1.353 2.66zm-3.395-.7L4.7 3.61l-.086 1.44.356-.447zm-.356-1.288l-.37-.882-.098-.028-1.205 4.69 1.526-1.848.148-1.932zm3.898 3.108q-.074-.714-.725-1.988l-.923-1.792-1.402-.168q.21.574.382 1.064.38 1.19.442 1.79.037.35.037.757 0 1.82-.455 2.296.935-.476 2.03-.476.282 0 .565.042.098-1.065.05-1.527zM4.995 4.77l-.43.575q0 .21-.394 1.75-.356 1.218-1.352 2.198l.185.084q.602-.28 1.414-2.016.467-1.007.578-2.59zm.123.505q-.086.434-.16.868-.184.728-.516 1.498-.492 1.135-1.316 1.765.037.014.098.014.394 0 .91-.393.603-.476.812-1.19.21-.728.21-1.736 0-.447-.038-.825zm-.7.238L2.842 7.445 2.4 9.167l.32.07q.258-.266.467-.518.504-.63.69-1.163.515-1.512.54-2.044zm-1.747 2.1L1.725 8.83l.602.253.345-1.47zm3.63.728l-.186.085-.098.616.22.03.063-.73zm-.297.113l-.184.084-.1.434.21.043.073-.56zm2.583.014q-.012-.406-.775-.406-.417 0-.92.113V9.77q.38-.057.983-.435.725-.462.713-.868zm2.35 1.988l-.124-.196-1.058.083q-.11-.084-.147-.49h1.02L9.337 7.36q-.038 1.065-.345 1.513-.136.196-.7.56-.47.308-1.38.448l-.048.603q.492.084 2.152.196 1.107.027 1.92-.225zM5.93 9.14l-.234-.07-.037.18.245.043.025-.154zm.295.04l-.21-.055-.024.182.222.042.013-.17zm.283-.923l-.11.056-.173 2.044.22.056.063-2.156zm-.812.322q-.443.237-2.25.937l1.918.616.332-1.554zm.184.825l-.233-.028-.062.294.283.043.012-.308zm.32.056l-.21-.027-.024.294q.025 0 .21.07L6.2 9.46zm5.83.967l-.05-.168q-1.13.573-2.755.573-1.18 0-2.754-.266-2.963-.518-6.1-2.24l-.073.504q.64.393 2.066.925 1.956.756 4.083 1.204.996.21 2.005.21 2.017 0 3.58-.743zm-6.2-.616l-.27-.04-.073.405.295.07.05-.434zm.333.085l-.21-.056-.06.42.233.07.037-.435zm5.374.406v-.083l-.59.028.098.21q.197-.056.492-.154zm.148.547v-.112q-.7.224-1.402.434-.627.167-1.34.167-.812 0-2.325-.196-2.2-.293-5.99-1.945L.606 9.6q.565.323 1.906.813 2.067.742 3.985 1.008.923.127 1.783.127 2.153 0 3.407-.7zm-.504.35q-1.56.462-3.074.462-.787 0-1.635-.1Q4.11 11.28.68 9.798l-.024.434q2.545 1.023 5.768 1.555.787.126 1.55.126 1.905 0 3.21-.713zm-.245.42l-.025-.112q-1.648.532-3.037.532-.443 0-1.61-.084-1.38-.098-5.486-1.498v.392q.332.168 1.87.574 1.905.505 3.565.743.59.084 1.218.084 1.845 0 3.505-.63zm-4.82.63q-2.73-.252-5.19-1.176l.024.435 1.622.42q1.587.406 1.894.406 1.574 0 1.648-.083z" style="-inkscape-font-specification:FaithOrnaments" font-size="185.24" font-family="FaithOrnaments" letter-spacing="0" word-spacing="0" fill="#00007d"/></svg>