<svg xmlns="http://www.w3.org/2000/svg" width="220.875" height="29.562" viewBox="0 0 220.875 29.562"><g style="line-height:125%" font-size="22.5" font-family="CyrillicOld" letter-spacing="0" word-spacing="0" fill="#2260a9" font-weight="bold"><path d="M13.308 11.69l4.883 8.482h1.823v.9h-7.627v-.9h2.025l-3.33-5.647-1.237 2.385q-.27.495-.607 1.462-.338.945-.338 1.305 0 .27.27.405.293.113.698.113.36 0 .54-.023v.9H5.23v-.9q.226.023.316.023 1.147 0 1.912-.968.473-.585 1.373-2.542l.293-.63 1.283-2.655L6.67 7.01H5.254v-.9h6.683v.9h-1.598l2.25 3.645q.99-2.138 1.778-3.15 1.305-1.688 2.812-1.688.54 0 1.305.225.788.203.788.428 0 .09-.18.472-.18.36-.404.72l-.203 1.125q.023.27-.067.54-.068 0-.293.023h-.315q-.382 0-.922-.383-.54-.382-.81-.382-.63 0-1.215.562-.72.698-1.552 2.543zM23.447 19.542l.09.72q.022.293.09 1.508.09 1.237.09 1.912 0 1.62-.36 2.228-.338.63-.99.63-.428 0-.495-.203v-.135q.022-.157.022-.517v-2.25q0-.36-.022-.81-.023-.45-.09-1.035-.203-2.183-.293-3.173-.09-.99-.09-1.845 0-2.565 1.62-4.522 1.372-1.643 2.407-1.643 1.102 0 2.385 1.958 1.44 2.205 1.44 4.702 0 1.913-.855 3.128-.833 1.192-2.138 1.192-.81 0-1.62-.517-.788-.54-1.193-1.328zm.585-7.132q-.495.742-.698 1.507-.202.765-.202 1.823 0 1.845.967 3.195.854 1.17 1.71 1.17.404 0 .697-.293.45-.45.45-1.372v-.788q0-1.26-.833-2.88-.922-1.8-2.092-2.362zM35.378 11.15h2.182q.225 0 .27.112v.405q.023.135.135.585l.338 1.238.157.63q.72 2.88 1.305 4.635.383 1.08.765 2.137 0 .18-.427.18H37.92q-.157 0-.225-.27-.045-.27-.067-.472-.135-.383-.225-.698l-.248-.832-.27-.968q-.472 1.575-1.17 2.408-.9 1.08-2.205 1.08-1.215 0-1.822-.99-.473-.765-.473-1.8 0-1.058 1.035-2.52.36-.518 1.643-1.98.112-.135.922-1.013.36-.382.36-.607 0-.135-.045-.293-.022-.18-.112-.405-.068-.247-.068-.45 0-.112.428-.112zm.18 2.092q-.923 1.013-1.53 2.115-.608 1.08-.608 1.8 0 .54.293 1.013.315.45.967.45.833 0 1.373-.63.45-.518.45-1.103 0-.36-.135-.81-.135-.45-.225-.742l-.27-.945-.315-1.148zM45.067 11.15h1.665q.428 0 .518.157.09.158.18 1.013.09.832.36 2.115.27 1.26.945 3.87.157-1.103.562-2.205.225-.63.54-1.26.18-.383.36-.855.203-.495.203-.788 0-.765-.09-1.26-.068-.517-.068-.675 0-.112.248-.112h1.98q.585 0 .63.337.292 3.285.787 5.063.428 1.507 1.373 3.532.067.18.112.338.068.157.068.337 0 .18-.068.248-.067.067-.405.067h-1.44q-.765 0-1.597-2.317-.608-1.665-.878-3.33l-.18-.878q-.63 1.373-1.057 2.925-.428 1.53-.428 2.633v.45q.023.112 0 .315-.022.202-.18.202h-1.642q-.36 0-.45-.067-.248-.18-.495-.923-.383-1.237-.675-2.452-.383-1.598-.833-3.893-.877 1.103-1.395 2.408-.517 1.305-.517 2.497 0 .45.135.945.067.27.247.743.068.202.135.382.068.18.068.225 0 .135-.225.135h-1.845q-.203 0-.293-.27-.067-.27-.067-.675 0-1.125.697-2.677.473-1.035 1.17-2.138.585-.945.81-1.372.54-1.013.54-1.71-.022-.135-.022-.225-.045-.27-.045-.383 0-.09.045-.225t.112-.18q.09-.067.405-.067zM64.453 13.13h-.99l-.923-5.108q0-.697.428-1.192.427-.495.99-.495.36 0 .697.247.36.225.54.63.203.383.203.81l-.945 5.108zm4.747 0h-.99l-.945-5.108q0-.652.428-1.17.427-.517 1.012-.517.36 0 .698.247.36.225.54.63.202.383.202.81L69.2 13.13zM87.163 11.397H81.56v-.877h.9q0-2.115-.742-3.06-.585-.743-1.552-.743-1.058 0-1.71.9-.855 1.193-.855 3.69 0 1.26.18 2.408.18 1.147.608 2.947.45 1.8.45 2.993 0 .27-.067.495-.044.225-.09.405l-.09.315q.136.112.496.112 1.215 0 2.295-1.62 1.103-1.62 1.103-3.577 0-.383-.022-.563h-.9v-.9h5.603v.9h-.877q0 2.633-2.408 4.545-2.227 1.778-4.837 1.778-.63 0-.922-.068-.27-.045-.652-.202v-.293q0-.675-.338-1.282-.315-.608-1.552-2.205-1.103-1.395-1.485-2.61-.247-.788-.247-1.89v-.563q0-2.992 1.958-4.86 1.846-1.755 4.59-1.755 2.97 0 4.546 1.778 1.035 1.17 1.35 2.925h.877v.877zM89.823 11.15h5.13q1.125 0 1.485.157.562.248.562 1.035 0 1.193-1.17 2.003-.855.585-2.677 1.125v.135q1.845.427 3.037 1.17 1.89 1.17 1.89 2.88 0 .922-.562 1.215-.383.202-1.35.202H89.62q-.45 0-.585-.585-.112-.607-.112-3.082 0-4.343.135-5.288.157-.967.765-.967zm1.732 3.915q1.17 0 1.958-.81.675-.698.675-1.553 0-.517-.36-.675-.36-.18-1.148-.18-.292 0-.54.023h-.427q-.158 1.507-.158 3.195zm.023 5.242l1.35.045q1.17 0 1.507-.157.518-.248.518-1.103 0-1.057-.855-2.025-1.035-1.17-2.543-1.17l-.045 1.778.068 2.632zM108.88 12.095l.54.652q-.517.36-1.035.563-.495.202-.945.202-.495 0-.967-.292-.45-.315-.855-.765-.405-.473-.518-.585-.315-.27-.63-.27-.99 0-1.372 1.597-.27 1.103-.27 2.79.495-.382 1.327-.765.968-.45 1.508-.45.405 0 .832.158.428.157.833.405.405.247.585.247.202 0 .405-.09.202-.09.405-.247l.427.562q-.36.428-.607.653-.225.202-.608.472-.36.27-.585.36-.202.09-.472.09-.36 0-.518-.067-.135-.068-.472-.293-.338-.225-.675-.405-.495-.27-.923-.27-.472 0-.922.248-.225.135-.518.382 0 1.62.765 2.723.788 1.102 2.205 1.102.608 0 1.26-.225.653-.247 1.508-.877l.382.45q-.652.72-1.62 1.17-.967.472-2.205.472-1.935 0-3.33-.922-1.98-1.328-1.98-4.14v-.72q0-1.755 1.058-3.285 1.305-1.89 3.51-1.89.99 0 1.98.405.495.202 1.237.652.473.36.788.36.247 0 .472-.157zM121.382 15.155l-1.102-.203q.157-.45.225-.697.067-.248.067-.518 0-1.192-.967-1.642-.585-.27-1.553-.27h-.405l-.022 2.025-.023 1.462q0 1.71.023 3.218.045 1.485.112 2.025.045.315-.112.472-.135.135-.743.135h-1.26q-.45 0-.54-.405-.09-.427-.09-2.025l.023-1.327v-.923l.045-2.452.067-2.205h-.382q-.945 0-1.508.247-1.012.45-1.012 1.665 0 .203.112.63.113.405.158.585l-1.103.203q-.27-.855-.495-1.305-.225-.473-.742-1.238-.18-.27-.248-.405-.135-.27-.135-.562 0-.315.203-.54.202-.225.427-.225.158 0 .473.045.315.045.765.09.472.09 1.26.112.787.023 1.507.023H119.357q.923 0 1.778-.135.45-.045.742-.09.315-.045.495-.045.225 0 .428.225.202.225.202.54 0 .292-.112.54-.18.292-.248.427-.427.63-.72 1.238-.292.585-.54 1.305zM128.146 11.15h2.183q.224 0 .27.112v.405q.02.135.134.585l.337 1.238.16.63q.72 2.88 1.304 4.635.382 1.08.765 2.137 0 .18-.43.18h-2.18q-.16 0-.226-.27-.045-.27-.068-.472-.135-.383-.225-.698l-.246-.832-.27-.968q-.473 1.575-1.17 2.408-.9 1.08-2.205 1.08-1.216 0-1.824-.99-.472-.765-.472-1.8 0-1.058 1.035-2.52.36-.518 1.64-1.98.114-.135.924-1.013.36-.382.36-.607 0-.135-.045-.293-.024-.18-.114-.405-.067-.247-.067-.45 0-.112.426-.112zm.18 2.092q-.922 1.013-1.53 2.115-.607 1.08-.607 1.8 0 .54.29 1.013.316.45.97.45.83 0 1.37-.63.45-.518.45-1.103 0-.36-.134-.81-.135-.45-.225-.742l-.27-.945-.314-1.148zM145.696 20.172V7.01h-.9q-1.283 0-1.62.292-.63.54-1.215 2.813-.134.585-.157.63-.157.45-.54.45-.405 0-.517-.248-.113-.27-.113-.72 0-.9-.382-1.867-.09-.27-.427-1.013-.225-.495-.225-.72 0-.315.248-.562.247-.248.697-.248.585.113 1.283.225.72.09 1.597.09l.765-.022h6.345l.765.022q.99 0 1.62-.09l1.26-.225q.45 0 .675.27.248.248.248.54 0 .248-.292.9-.27.653-.337.833-.18.45-.292.945-.112.495-.112.922 0 .45-.045.585-.134.383-.562.383-.382 0-.585-.63-.067-.18-.315-1.148-.405-1.53-.99-2.047-.405-.36-1.237-.36h-1.327v13.162h1.8v.9h-6.862v-.9h1.756zM158.798 19.542l.09.72q.023.293.09 1.508.09 1.237.09 1.912 0 1.62-.36 2.228-.337.63-.99.63-.427 0-.495-.203v-.135q.023-.157.023-.517v-2.25q0-.36-.023-.81-.022-.45-.09-1.035-.202-2.183-.292-3.173-.09-.99-.09-1.845 0-2.565 1.62-4.522 1.373-1.643 2.408-1.643 1.103 0 2.385 1.958 1.44 2.205 1.44 4.702 0 1.913-.855 3.128-.832 1.192-2.137 1.192-.81 0-1.62-.517-.787-.54-1.192-1.328zm.585-7.132q-.495.742-.697 1.507-.203.765-.203 1.823 0 1.845.968 3.195.856 1.17 1.71 1.17.406 0 .698-.293.45-.45.45-1.372v-.788q0-1.26-.832-2.88-.923-1.8-2.093-2.362zM166.544 16.73q0-2.453 1.53-4.545 1.328-1.8 2.295-1.8 1.08 0 2.34 1.192 1.642 1.553 1.642 3.915 0 1.935-1.395 4.118-1.373 2.182-2.475 2.182-1.125 0-2.498-1.642-1.44-1.733-1.44-3.42zm2.183-3.96q-.315.382-.495.877-.18.473-.18.855 0 1.44.9 2.88 1.125 1.8 2.88 1.8.27 0 .405-.022.18-.36.27-.765.09-.405.09-.81 0-1.778-1.035-3.15-1.103-1.463-2.835-1.665zM178.87 15.312l3.646-2.182q0-1.35.113-1.665.11-.315.606-.315h1.868q.27 0 .27.315l-.09.877q-.158.878-.225 1.44-.046.54-.046 1.53 0 2.745.337 5.153.046.315-.09.472-.134.135-.764.135h-1.26q-.472 0-.63-1.192-.135-1.193-.135-5.85l-3.6 2.137q0 .9.07 1.8.066.9.29 2.498.046.315-.09.472-.134.135-.764.135h-1.282q-.248 0-.338-.045-.27-.157-.27-.787l-.09-1.35q0-.72-.067-1.845-.046-1.125-.046-1.665 0-2.858.18-3.533.18-.697.607-.697h1.89q.294 0 .294.315l-.113.877q-.11.765-.2 1.418-.07.63-.07 1.552zM190.458 20.352h3.24l-.068-2.34-.067-2.632q0-2.813.18-3.533.18-.72.652-.72l.878.023.72-.045h.247q.293.045.293.315 0 .202-.023.292-.157.585-.225 1.125-.067.54-.09 1.238-.022.697-.022 1.237 0 .63-.023 1.215v1.125q0 2.228.585 2.385.135.045.383 0 .27-.09.427-.112.338-.09.518-.09.292 0 .45.18.157.18.157.337 0 .225-.112.585-.18.495-.315.81-.113.315-.338 1.035-.405 1.26-.72 2.273h-1.192q.247-.833.247-1.575 0-1.283-.607-1.755-.833-.653-3.398-.653l-1.665.023-2.205.09q-.517 0-.607-.743-.09-.765-.09-5.062 0-2.858.225-3.69.157-.563.585-.563l.877.023.765-.045h.203q.27.045.27.315 0 .337-.113.99-.112.63-.18 1.327-.045.675-.045 1.575 0 .945.045 1.62.158 2.385.158 3.42zM203.688 11.15h2.183q.226 0 .27.112v.405q.023.135.136.585l.337 1.238.158.63q.72 2.88 1.306 4.635.382 1.08.765 2.137 0 .18-.427.18h-2.182q-.157 0-.224-.27-.045-.27-.068-.472-.135-.383-.225-.698l-.247-.832-.27-.968q-.473 1.575-1.17 2.408-.9 1.08-2.205 1.08-1.214 0-1.822-.99-.472-.765-.472-1.8 0-1.058 1.035-2.52.36-.518 1.643-1.98.113-.135.923-1.013.36-.382.36-.607 0-.135-.045-.293-.022-.18-.112-.405-.067-.247-.067-.45 0-.112.428-.112zm.18 2.092q-.922 1.013-1.53 2.115-.607 1.08-.607 1.8 0 .54.293 1.013.315.45.968.45.833 0 1.373-.63.45-.518.45-1.103 0-.36-.135-.81-.135-.45-.225-.742l-.27-.945-.315-1.148zM212.68 13.13h-.99l-.922-5.108q0-.697.427-1.192.428-.495.99-.495.36 0 .698.247.36.225.54.63.202.383.202.81l-.945 5.108zm4.748 0h-.99l-.945-5.108q0-.652.427-1.17.428-.517 1.013-.517.36 0 .697.247.36.225.54.63.203.383.203.81l-.945 5.108z" style="-inkscape-font-specification:'CyrillicOld Bold'"/></g></svg>